<svg id="Layer_1" data-name="Layer 1" xmlns="http://www.w3.org/2000/svg" width="333.24" height="189.84" viewBox="0 0 333.24 189.84"><defs><style>.cls-1{fill:#cab8aa;}</style></defs><title>hs-logo</title><path class="cls-1" d="M212.21,50.8v-.16a3,3,0,1,1,6.09,0v.16a3,3,0,1,1-6.09,0"/><path class="cls-1" d="M60.69,35l-4.5,2,2.55,5.82,4.6-2c2.31-1,3.32-2.64,2.49-4.56l0,0c-.78-1.77-2.57-2.3-5.12-1.18m-.34-8.38c-.79-1.81-2.49-2.21-4.68-1.25l-3.83,1.68,2.45,5.6,3.58-1.57c2.27-1,3.32-2.55,2.5-4.43Zm-15.5-1.92,9.22-4c2.76-1.22,5.39-1.48,7.43-.69A6.31,6.31,0,0,1,65,23.48l0,.11a6.31,6.31,0,0,1-1,6.9c3.11-.14,5.6.71,7,4l.07.17c2,4.47-.59,8.38-6,10.74l-9.46,4.14Z"/><path class="cls-1" d="M94.45,21.7l-.07-.27c-1.38-5.15-4.87-7.71-8.49-6.74s-5.38,4.89-4,10L82,25c1.38,5.16,4.9,7.7,8.53,6.73s5.34-4.87,4-10m-18,4.94-.12-.45c-2.1-7.85,1.36-14.67,8.28-16.52S97.86,12,100,19.79l.12.44c2.09,7.82-1.36,14.67-8.28,16.52s-13.27-2.3-15.36-10.11"/><polygon class="cls-1" points="106.86 5.07 112.41 4.2 115.8 25.89 126.63 24.19 127.42 29.28 111.06 31.84 106.86 5.07"/><path class="cls-1" d="M138.54,6.13,139.68,23l3.09-.21c4.25-.29,6.94-3.45,6.58-8.82v-.19c-.36-5.37-3.46-8.19-7.71-7.9Zm-5.93-4.68,8.72-.59c7.84-.53,13.26,4.54,13.79,12.45l0,.35c.54,7.91-4.15,13.7-12,14.22l-8.72.59Z"/><path class="cls-1" d="M186.62,13.78c2.86.16,4.5-1.37,4.64-3.8v0c.16-2.71-1.43-4.16-4.29-4.32l-4-.23-.48,8.15ZM177.65,0l10.16.59a10.05,10.05,0,0,1,7.19,3A8.63,8.63,0,0,1,196.92,10v.16a8.18,8.18,0,0,1-5.49,7.7l5.18,10.38-6.42-.37-4.46-9.17-3.52-.21-.52,8.89-5.6-.33Z"/><path class="cls-1" d="M223.1,18.42l0-.26c.82-5.28-1.34-9-5-9.6s-6.9,2.29-7.72,7.57l0,.27c-.82,5.27,1.37,9,5.08,9.6s6.86-2.3,7.69-7.58m-18.49-2.76.07-.46c1.25-8,7.17-12.86,14.25-11.76s11.21,7.47,10,15.46l-.07.46c-1.25,8-7.18,12.86-14.25,11.76s-11.22-7.47-10-15.46"/><path class="cls-1" d="M236.84,21.14l.1-.34c2.18-7.91,8.59-11.93,15.49-10a11.39,11.39,0,0,1,7.44,5.79l-4.4,3.28a7.52,7.52,0,0,0-4.61-4.08c-3.51-1-7,1.56-8.38,6.64l0,.11c-1.43,5.19.39,9.1,3.85,10.06,2.1.58,3.89,0,6.13-1.24l2.19,4.74a11.78,11.78,0,0,1-9.93,1.48c-6.86-1.9-10-8.44-7.84-16.42"/><polygon class="cls-1" points="270.88 17.03 276.02 19.27 271.34 29.99 284.15 22.82 290.21 25.47 277.27 32.37 279.72 50.46 273.69 47.83 271.94 34.9 268.37 36.8 265.17 44.11 260.03 41.86 270.88 17.03"/><path class="cls-1" d="M41.77,139.69l.07-.06a1.85,1.85,0,1,1,2.34,2.87l-.08.06a1.85,1.85,0,1,1-2.33-2.87"/><polygon class="cls-1" points="54.04 146.06 55.54 147.3 53.15 150.2 55.52 152.16 57.92 149.26 59.42 150.5 53.45 157.73 51.95 156.49 54.38 153.55 52 151.59 49.58 154.53 48.08 153.3 54.04 146.06"/><path class="cls-1" d="M63.18,159.94l.82-3.11-2.54,2Zm1.51-5.79,1.54,1-2.36,9.72-1.67-1.1.53-2.09L60,159.92l-1.68,1.33-1.64-1.07Z"/><polygon class="cls-1" points="71.75 158.59 73.33 159.42 73.95 165.93 76.5 161.1 78.19 161.99 73.81 170.28 72.34 169.5 71.7 162.76 69.06 167.77 67.37 166.88 71.75 158.59"/><path class="cls-1" d="M82.78,166.05l-2.32,5.39,1,.42c1.35.58,2.68,0,3.42-1.68l0-.06c.74-1.71.23-3.07-1.12-3.65Zm-1.09-2.39,2.78,1.2a4.3,4.3,0,0,1,2.29,6l-.05.11a4.32,4.32,0,0,1-5.95,2.49L78,172.28Z"/><path class="cls-1" d="M95.08,174.13l0-.11c.87-2.7,3.15-4,5.5-3.24a3.91,3.91,0,0,1,2.48,2.12L101.54,174a2.64,2.64,0,0,0-1.54-1.48c-1.19-.38-2.43.44-3,2.17v0c-.57,1.77,0,3.15,1.18,3.53a2.64,2.64,0,0,0,2.13-.33l.69,1.67a4.1,4.1,0,0,1-3.45.36c-2.35-.76-3.35-3.07-2.47-5.79"/><path class="cls-1" d="M108.92,178.07a1.36,1.36,0,0,0,1.84-1v0c.24-.91-.2-1.51-1.16-1.76l-1.35-.35-.72,2.74Zm-2.11-5.29,3.41.89a3.52,3.52,0,0,1,2.24,1.52,3,3,0,0,1,.21,2.3v0a2.83,2.83,0,0,1-2.39,2.24l1,3.88-2.15-.57-.89-3.41-1.18-.31-.78,3-1.88-.49Z"/><path class="cls-1" d="M120.24,181.75l-.39-3.2-1.62,2.78Zm-.74-6,1.81.38,1.4,9.92-2-.41-.27-2.13-3.17-.65-1.08,1.85-1.91-.39Z"/><polygon class="cls-1" points="127.53 177.4 133.5 178.33 133.22 180.09 129.17 179.46 128.85 181.53 132.41 182.09 132.13 183.85 128.57 183.29 128 186.96 126.08 186.66 127.53 177.4"/><polygon class="cls-1" points="138.26 180.75 135.92 180.47 136.12 178.69 142.72 179.46 142.51 181.24 140.17 180.97 139.29 188.49 137.38 188.27 138.26 180.75"/><polygon class="cls-1" points="145.93 179.74 151.96 180.18 151.83 181.93 147.73 181.63 147.58 183.65 151.19 183.91 151.06 185.66 147.45 185.4 147.29 187.48 151.45 187.79 151.32 189.54 145.24 189.09 145.93 179.74"/><path class="cls-1" d="M157.26,182.18l-.19,5.87,1.07,0c1.48,0,2.51-1,2.57-2.82v-.07c.05-1.86-.92-2.93-2.39-3Zm-1.89-1.81,3,.09a4.31,4.31,0,0,1,4.33,4.77v.12a4.31,4.31,0,0,1-4.62,4.49l-3-.1Z"/><path class="cls-1" d="M172,185.25v-.09a1.85,1.85,0,1,1,3.7-.11v.1a1.85,1.85,0,1,1-3.69.1"/><path class="cls-1" d="M189.64,185.16l-1.29-2.95-.75,3.13Zm-2.42-5.48,1.83-.17,4.21,9.08-2,.18-.88-2-3.21.29-.5,2.09-1.94.18Z"/><polygon class="cls-1" points="195.4 178.9 197.32 178.65 198.33 186.16 202.08 185.66 202.32 187.43 196.64 188.19 195.4 178.9"/><polygon class="cls-1" points="204.2 177.64 206.11 177.31 207.42 184.79 211.15 184.14 211.46 185.9 205.81 186.88 204.2 177.64"/><polygon class="cls-1" points="218.01 174.94 219.74 174.51 224.55 178.94 223.22 173.63 225.07 173.17 227.35 182.27 225.74 182.67 220.76 178.08 222.14 183.58 220.29 184.04 218.01 174.94"/><path class="cls-1" d="M234.93,176.09l-1.89-2.6-.07,3.22Zm-3.53-4.84,1.76-.55,6,8-1.91.6L236,177.55l-3.07,1-.05,2.14-1.86.59Z"/><polygon class="cls-1" points="240.87 169.99 238.66 170.82 238.03 169.14 244.25 166.8 244.88 168.48 242.68 169.31 245.34 176.41 243.53 177.08 240.87 169.99"/><path class="cls-1" d="M249.66,170.78l-2.37-5.23,1.77-.8,2.37,5.24c.55,1.2,1.39,1.54,2.31,1.13s1.22-1.26.69-2.45L252,163.4l1.76-.8,2.35,5.19c1.06,2.36.28,4.08-1.69,5s-3.76.31-4.8-2"/><path class="cls-1" d="M262.38,163.29a1.36,1.36,0,0,0,.66-2h0a1.34,1.34,0,0,0-2-.48l-1.22.67,1.36,2.48Zm-5.17-2.39,3.09-1.7a3.5,3.5,0,0,1,2.66-.44,2.93,2.93,0,0,1,1.74,1.52l0,.05a2.84,2.84,0,0,1-.19,3.27l3.42,2.1L266,166.77l-3-1.87-1.06.58,1.48,2.7-1.7.94Z"/><path class="cls-1" d="M273.15,157.88l-2.55-2,.86,3.11Zm-4.77-3.63,1.54-1,8.06,5.92-1.66,1.13L274.6,159l-2.67,1.81.57,2.07-1.62,1.09Z"/><polygon class="cls-1" points="275.12 149.48 276.61 148.23 281.5 154.03 284.39 151.59 285.54 152.95 281.16 156.64 275.12 149.48"/><path class="cls-1" d="M289.1,142.61l-.07-.06a1.85,1.85,0,1,1,2.33-2.87l.08.06a1.85,1.85,0,1,1-2.34,2.87"/><path class="cls-1" d="M177.07,153.56c0-.38,0-.76,0-1.14a8.81,8.81,0,0,0-1.33-4.22,6.92,6.92,0,0,0-.74-.92l-.09-.1a5,5,0,0,0-.83-.64l-.15-.09a3.82,3.82,0,0,0-.93-.39l-.17,0a4.13,4.13,0,0,0-1.07-.14,4.57,4.57,0,0,0-.63,0,8.46,8.46,0,0,0-1.22.23l-1.23.29-2.24.45c0-.55,0-1,0-1.45a2.5,2.5,0,0,1,.23-.85,1,1,0,0,1,.17-.24l.06,0a.21.21,0,0,1,.13-.05h.06a.83.83,0,0,1,.35.15h0a1.25,1.25,0,0,0,.57.24,3.39,3.39,0,0,0,.45,0l.17,0,.29-.05.15,0a1.51,1.51,0,0,0,.28-.15l.12-.08a1.5,1.5,0,0,0,.35-.36,2.27,2.27,0,0,1,1.72-1l.35-.06-.66-.66a2.54,2.54,0,0,0-.45-.36.91.91,0,0,0-.17-.09,2.59,2.59,0,0,0-.33-.17l-.22-.07-.33-.1-.24,0-.33,0H169a3.23,3.23,0,0,0-.87.14l-.09,0a3,3,0,0,0-.82.44,1.07,1.07,0,0,0-.36.44.77.77,0,0,0-.07.26,1.08,1.08,0,0,0,0,.3c.19.71-.2,1.2-.62,1.76-.07-.38-.11-.7-.2-1-.22-.78-.45-1.55-.7-2.32a.62.62,0,0,0-.15-.24s0,0-.06,0a.25.25,0,0,0-.15-.05h-.08a1,1,0,0,0-.35.1c-.3.13-.27.28-.19.45l.09.19c.29.61.54,1.24.81,1.86A8.45,8.45,0,0,1,164,143a1.93,1.93,0,0,1-.84-1.08,2.46,2.46,0,0,0-1.93-1.83h0a7.13,7.13,0,0,0-1.39-.16,5.8,5.8,0,0,0-.59,0,3.84,3.84,0,0,0-3.57,2.39c-.18.4-.34.8-.52,1.23a4.2,4.2,0,0,1,.92-.28l.3,0a3.34,3.34,0,0,1,.43,0l.15,0a5.82,5.82,0,0,1,.73.09l.33.06a8.62,8.62,0,0,1,1,.35,5.14,5.14,0,0,0,1.65.32,3,3,0,0,0,.43,0l.27,0a1.91,1.91,0,0,0,.34-.1l.24-.07a2.33,2.33,0,0,0,.34-.2,1.74,1.74,0,0,0,.18-.11,2.41,2.41,0,0,0,.44-.46.79.79,0,0,1,.13-.13h.06l.08,0h0a.56.56,0,0,1,.28.1,4.45,4.45,0,0,1,2.36,3.82,2.29,2.29,0,0,1-.47,0c-.78-.22-1.56-.42-2.31-.7a5.81,5.81,0,0,0-.88-.25l-.24-.05a4.76,4.76,0,0,0-.75-.07H161a5,5,0,0,0-.76.06,5.26,5.26,0,0,0-3.73,2.43,7.37,7.37,0,0,0-.72,1.4,9.41,9.41,0,0,0-.44,1.43c-.06.26-.09.54-.13.81s-.05.38-.07.57a10.42,10.42,0,0,0,0,1.12,1.7,1.7,0,0,0,0,.22,11.72,11.72,0,0,0,.14,1.3c0,.28.07.57.14.86.11.51.27,1,.42,1.48s.28.82.44,1.22l.21.52c.15.33.3.65.46,1s.31.54.47.8.27.46.42.68A14.12,14.12,0,0,0,159,163a8.54,8.54,0,0,0,.76.72l.2.16a6.71,6.71,0,0,0,.82.53h0a5.09,5.09,0,0,0,.89.34l.23.06a4.08,4.08,0,0,0,.93.11h0c.16,0,.32,0,.48,0l.29,0a4.75,4.75,0,0,0,.81-.19,4.55,4.55,0,0,1,.87-.2,1.42,1.42,0,0,1,.29,0,4.38,4.38,0,0,1,.52,0h.05c.2,0,.41,0,.61,0l.3,0a8.08,8.08,0,0,1,.92.21,4.17,4.17,0,0,0,.72.14l.21,0a3.18,3.18,0,0,0,.69,0,6.62,6.62,0,0,0,4.27-2.58c.32-.4.62-.8.89-1.21l.15-.24c.22-.35.43-.7.61-1.06a1.51,1.51,0,0,0,.09-.18q.3-.6.54-1.2l0-.09c.16-.44.31-.9.43-1.36a14.16,14.16,0,0,0,.38-2.36c0-.34,0-.69,0-1"/><path class="cls-1" d="M224.17,138.94a24.2,24.2,0,0,0-2.09,2.71c-2,2.88-4,5.57-10,5.32-.21,0-.47-.17-.32-.31a39.68,39.68,0,0,1,3.76-3.32c1.9-1.44,3.23-2.05,3.16-2.26s-1.59.06-3.8,1.26a28.37,28.37,0,0,0-4,2.78c-.09.07-.24,0-.21-.1a7.68,7.68,0,0,1,2.54-4c2.73-2.23,7.09-2.75,10.92-2.46.19,0,.15.26,0,.39m-8.5,19.9c.12.14-.08.28-.27.28a25.27,25.27,0,0,0-3.4.31c-3.49.49-6.8.87-10.68-3.68-.13-.15-.2-.45,0-.44a40.46,40.46,0,0,1,5,.5c2.36.41,3.71,1,3.82.77s-1.13-1.12-3.51-1.92a27.92,27.92,0,0,0-4.78-1.06c-.12,0-.18-.17-.07-.22a7.63,7.63,0,0,1,4.67-.87c3.49.48,6.84,3.32,9.23,6.33M198,149.37a7.63,7.63,0,0,1-2.94,3.72c-.1.07-.2-.05-.17-.16a27.87,27.87,0,0,0,1.3-4.73c.41-2.48.13-4-.07-4s-.36,1.46-1.09,3.73a39.32,39.32,0,0,1-1.89,4.65c-.09.19-.32,0-.39-.2-2.22-5.56-.33-8.31,1.73-11.16a24.77,24.77,0,0,0,1.86-2.87c.09-.16.3-.27.38-.11,1.54,3.53,2.49,7.82,1.28,11.13m28.52-12.32c-2.59-.38-9.86-1.14-14.42,2.59a9.84,9.84,0,0,0-3.51,6.89,42.06,42.06,0,0,1-10,5.47,10.1,10.1,0,0,0,1-2c2-5.54-1.11-12.15-2.32-14.47-.73-1.39-1.42-1.27-1.87.26a14.8,14.8,0,0,1-2.44,4.42c-2.28,3.16-4.84,6.73-1.5,13.94a39.41,39.41,0,0,1-12.76.71,15,15,0,0,1-.36,2.34,44.7,44.7,0,0,0,19.83-2.52s0,0,0,0c5.2,7.7,9.86,7.05,14,6.48a14.81,14.81,0,0,1,5-.1c1.56.32,2-.23,1.09-1.52-1.48-2.15-5.87-8-11.7-8.81h-.05a39,39,0,0,0,3.24-2.19c8.69,1.17,11.34-2.57,13.66-5.9a14.81,14.81,0,0,1,3.36-3.76c1.29-.93,1.18-1.62-.37-1.85"/><path class="cls-1" d="M143.41,152.38c-.07.19-.3.39-.39.2a39.32,39.32,0,0,1-1.89-4.65c-.73-2.27-.86-3.72-1.09-3.73s-.48,1.52-.07,4a27.87,27.87,0,0,0,1.3,4.73c0,.11-.07.23-.17.16a7.63,7.63,0,0,1-2.94-3.72c-1.21-3.31-.26-7.6,1.29-11.13.07-.16.29-.05.38.11a22.39,22.39,0,0,0,1.86,2.87c2.05,2.85,3.94,5.6,1.72,11.16m-8.57,3.37c-3.88,4.55-7.19,4.17-10.68,3.68a25.27,25.27,0,0,0-3.4-.31c-.18,0-.38-.14-.27-.28,2.39-3,5.74-5.85,9.24-6.33a7.65,7.65,0,0,1,4.67.87c.1.05,0,.2-.08.22a27.92,27.92,0,0,0-4.78,1.06c-2.38.8-3.61,1.75-3.51,1.92s1.46-.36,3.82-.77a40.46,40.46,0,0,1,5-.5c.21,0,.14.29,0,.44m-9.57-10.63a27.82,27.82,0,0,0-4-2.78c-2.21-1.2-3.74-1.45-3.8-1.26s1.26.82,3.16,2.26a39.68,39.68,0,0,1,3.76,3.32c.15.14-.11.3-.32.31-6,.25-7.94-2.44-10-5.32a24.2,24.2,0,0,0-2.09-2.71c-.12-.13-.16-.38,0-.39,3.83-.29,8.19.23,10.92,2.46a7.68,7.68,0,0,1,2.54,4c0,.11-.11.17-.21.1m28.45,11.17c-.1-.41-.14-.82-.2-1.23a40.86,40.86,0,0,1-8.89-.93c3.33-7.21.77-10.78-1.51-13.94a14.8,14.8,0,0,1-2.44-4.42c-.45-1.53-1.14-1.65-1.87-.26-1.21,2.32-4.33,8.93-2.32,14.47a9.64,9.64,0,0,0,1,2,41.93,41.93,0,0,1-10-5.47,9.84,9.84,0,0,0-3.51-6.89c-4.55-3.73-11.83-3-14.41-2.59-1.56.23-1.67.92-.37,1.85a15.19,15.19,0,0,1,3.36,3.76c2.32,3.33,5,7.07,13.65,5.9a37.58,37.58,0,0,0,3.25,2.19h-.06c-5.83.81-10.22,6.66-11.7,8.81-.9,1.29-.47,1.84,1.09,1.52a14.81,14.81,0,0,1,5,.1c4.11.57,8.77,1.22,14-6.48,0,0,0,0,0,0A46,46,0,0,0,154,157.44c-.11-.38-.23-.74-.32-1.15"/><path class="cls-1" d="M0,115.89l7.32-8.4c4,3.22,8.84,6.2,14.8,6.2,4.76,0,7.65-2.2,7.65-5.41v-.08c0-2.75-1.7-4.47-10.2-7.46C9,97,2.47,93.29,2.47,83.88v-.16c0-9.57,8-16.08,19.48-16.08a29.71,29.71,0,0,1,19.22,6.74L34.28,83c-3.74-2.82-8.08-5.1-12.67-5.1-4.26,0-6.89,2-6.89,4.79v.08c0,3.14,2,4.63,11.31,8.16,10.38,3.76,16,7.84,16,16.39v.16C42,117.69,33.6,124,22,124a33.48,33.48,0,0,1-22-8.08"/><polygon class="cls-1" points="51.97 68.34 90.33 68.34 90.33 78.62 64.22 78.62 64.22 90.47 87.19 90.47 87.19 100.74 64.22 100.74 64.22 112.98 90.67 112.98 90.67 123.26 51.97 123.26 51.97 68.34"/><polygon class="cls-1" points="101.21 68.34 113.55 68.34 113.55 112.83 137.62 112.83 137.62 123.26 101.21 123.26 101.21 68.34"/><polygon class="cls-1" points="151.23 78.86 136.25 78.86 136.25 68.34 178.45 68.34 178.45 78.86 163.47 78.86 163.47 123.26 151.23 123.26 151.23 78.86"/><polygon class="cls-1" points="185.41 114.55 212.55 78.46 186.27 78.46 186.27 68.34 227.78 68.34 227.78 77.05 200.64 113.14 227.78 113.14 227.78 123.26 185.41 123.26 185.41 114.55"/><polygon class="cls-1" points="238.83 68.34 277.2 68.34 277.2 78.62 251.08 78.62 251.08 90.47 274.05 90.47 274.05 100.74 251.08 100.74 251.08 112.98 277.54 112.98 277.54 123.26 238.83 123.26 238.83 68.34"/><path class="cls-1" d="M309.51,95.18c6.3,0,9.7-3.3,9.7-8.24v-.08c0-5.49-3.66-8.24-9.95-8.24h-8.85V95.18ZM288.07,68.34h22.38c6.89,0,12.42,1.81,16.16,5.26,3.23,3,5,7.3,5,12.71v.31c0,8.32-4.51,13.58-11.06,16.24l12.67,20.4H319.12l-11-18h-7.74v18H288.07Z"/><path class="cls-1" d="M161.83,47l-.18-.56-.18-.57-.18-.57s0,0,0,0,0,0,0,0l-.16.57c-.08.29-.07.29-.15.58s-.1.28-.18.57-.07.29-.15.58l-.16.57s0,.1.06.1l.54,0h1.07a.06.06,0,0,0,.06-.09c-.09-.29-.08-.29-.17-.57s-.08-.29-.17-.58"/><path class="cls-1" d="M185.68,46.32a3.26,3.26,0,0,0-.23-.6,1.71,1.71,0,0,0-.41-.51,2,2,0,0,0-.56-.32,2.9,2.9,0,0,0-.63-.17,4.18,4.18,0,0,0-.65-.07h-.53a.11.11,0,0,0-.1.1c0,.32,0,.32,0,.63s0,.32,0,.63l0,.63c0,.32,0,.32,0,.64s0,.31,0,.63,0,.31,0,.63,0,.31,0,.63,0,.32,0,.63,0,.32,0,.63a.09.09,0,0,0,.1.09l.61,0h0a4.51,4.51,0,0,0,.65,0,2.9,2.9,0,0,0,.63-.16A1.84,1.84,0,0,0,185,50a1.78,1.78,0,0,0,.41-.49,2.59,2.59,0,0,0,.24-.61,4.92,4.92,0,0,0,.14-.63,6.48,6.48,0,0,0,0-.65c0-.23,0-.45,0-.65a4,4,0,0,0-.1-.65"/><path class="cls-1" d="M173.68,44.57a1.82,1.82,0,0,0-.57-.18,3.54,3.54,0,0,0-.6,0H172c-.28,0-.28,0-.56,0a.1.1,0,0,0-.1.09c0,.3,0,.3,0,.59v.6c0,.29,0,.29,0,.59s0,.3,0,.6a.09.09,0,0,0,.09.09h1.11a3.4,3.4,0,0,0,.61-.06,1.92,1.92,0,0,0,.57-.24,1.09,1.09,0,0,0,.41-.46,1.62,1.62,0,0,0,.12-.66,1.18,1.18,0,0,0-.1-.53.89.89,0,0,0-.43-.4"/><path class="cls-1" d="M187.83,48.32c0,.22-.05.43-.09.64s-.1.42-.16.62a5.39,5.39,0,0,1-.25.6,3.91,3.91,0,0,1-.31.57,4.19,4.19,0,0,1-.88.94,4.22,4.22,0,0,1-.54.36,4.55,4.55,0,0,1-.59.25,4.15,4.15,0,0,1-.63.16,6.17,6.17,0,0,1-.64.09l-.65,0c-.32,0-.32,0-.65,0h-.65c-.32,0-.32,0-.65,0h-.65a.18.18,0,0,1-.18-.19c0-.31,0-.32,0-.63s0-.32,0-.64l0-.64,0-.63c0-.32,0-.32,0-.64s0-.32,0-.64,0-.31,0-.63,0-.32,0-.64,0-.32,0-.63,0-.32,0-.64,0-.32,0-.64l0-.64V44c0-.32,0-.32,0-.64s0-.32,0-.63a.2.2,0,0,1,.2-.18c.31,0,.31,0,.63,0l.63,0,.63,0h.62l.65,0a6.09,6.09,0,0,1,.64.11,5.61,5.61,0,0,1,.62.18,5.34,5.34,0,0,1,.59.28,3.84,3.84,0,0,1,.54.35,5,5,0,0,1,.48.44,3.31,3.31,0,0,1,.38.52,3.49,3.49,0,0,1,.29.58,5.31,5.31,0,0,1,.22.6,4.53,4.53,0,0,1,.13.64c0,.21.06.42.07.64a4.68,4.68,0,0,1,0,.65c0,.22,0,.44,0,.65m-11.3,4.11-.67,0h-.67c-.34,0-.34,0-.67,0a.34.34,0,0,1-.29-.17l-.3-.56c-.16-.28-.15-.29-.31-.56l-.31-.56L173,50l-.3-.56-.31-.56a.16.16,0,0,0-.14-.08h-.86a.1.1,0,0,0-.1.09v.67c0,.33,0,.33,0,.66s0,.33,0,.66l0,.66c0,.33,0,.33,0,.66a.18.18,0,0,1-.18.18h-1.71a.2.2,0,0,1-.19-.19c0-.32,0-.32,0-.64s0-.32,0-.64v-.64c0-.32,0-.32,0-.64s0-.32,0-.64,0-.32,0-.63v-.64c0-.32,0-.32,0-.64s0-.32,0-.64v-.64c0-.32,0-.32,0-.63s0-.32,0-.64V43.9c0-.32,0-.32,0-.64s0-.32,0-.64a.2.2,0,0,1,.19-.19h3.1l.61.05c.2,0,.4,0,.6.09a5.62,5.62,0,0,1,.58.19,2.64,2.64,0,0,1,1,.62,2.15,2.15,0,0,1,.4.45,2.73,2.73,0,0,1,.27.54,2.7,2.7,0,0,1,.17.59,3.86,3.86,0,0,1,0,.6,3,3,0,0,1-.07.68,3.3,3.3,0,0,1-.55,1.23,3.17,3.17,0,0,1-.47.5,3.67,3.67,0,0,1-.56.38.08.08,0,0,0,0,.12c.14.27.15.27.3.54l.31.54c.14.27.13.27.28.54l.31.54.29.54.31.54.3.54a.07.07,0,0,1,0,.05.12.12,0,0,1-.11.12m-11.06,0h-1.8a.25.25,0,0,1-.24-.17c-.1-.34-.1-.34-.21-.67s-.11-.33-.21-.67l-.2-.67a.12.12,0,0,0-.12-.09l-.68,0c-.34,0-.34,0-.68,0h-.68l-.68,0a.11.11,0,0,0-.12.08c-.1.34-.1.33-.19.67l-.18.68c-.1.33-.09.33-.18.67a.25.25,0,0,1-.25.17l-.6,0h-.6c-.3,0-.3,0-.6,0h0a.13.13,0,0,1-.12-.18c.09-.3.07-.31.16-.61s.11-.29.2-.59.08-.31.17-.61.11-.3.2-.6l.18-.6c.09-.3.1-.3.19-.6s.08-.31.17-.61.1-.3.19-.6.1-.3.19-.6l.18-.6c.1-.3.09-.3.18-.6s.1-.3.19-.6.09-.31.18-.61l.18-.6c.09-.3.1-.3.2-.6s.08-.3.18-.6a.23.23,0,0,1,.23-.18h1.25c.31,0,.31,0,.62,0a.28.28,0,0,1,.25.19c.1.3.09.3.19.6s.11.29.21.59.09.3.19.6.11.3.21.6l.2.59c.1.3.09.3.19.6l.2.6.2.59.2.6c.1.3.09.3.19.6s.11.29.21.59.09.3.19.61l.2.59.2.6.2.59c.1.3.11.3.2.6,0,0,0,0,0,0a.14.14,0,0,1-.14.14m-12.11.18-.57,0h-.56l-.57,0a.19.19,0,0,1-.2-.17c0-.33,0-.33,0-.65s0-.33,0-.66,0-.33,0-.65l0-.66c0-.32,0-.32,0-.65s0-.33,0-.66a.1.1,0,0,0-.11-.09c-.31,0-.31,0-.63,0H150l-.63,0-.63,0-.63,0a.1.1,0,0,0-.1.09c0,.37,0,.32,0,.8,0,.19,0,.24,0,.51s0,.33,0,.66,0,.32,0,.65,0,.33,0,.65,0,.33,0,.66a.18.18,0,0,1-.19.18l-.56,0c-.29,0-.29,0-.57,0h-.57a.2.2,0,0,1-.2-.18c0-.32,0-.32,0-.64l0-.64c0-.32,0-.31,0-.64v-.63c0-.32,0-.32,0-.64l0-.63c0-.32,0-.32,0-.64s0-.32,0-.64,0-.32,0-.63,0-.32,0-.64l0-.64,0-.63,0-.64c0-.32,0-.32,0-.64s0-.31,0-.63a.18.18,0,0,1,.18-.19l.57,0h.57c.28,0,.28,0,.56,0a.19.19,0,0,1,.19.19c0,.3,0,.3,0,.59l0,.59c0,.3,0,.3,0,.6s0,.29,0,.59l0,.59,0,.59a.09.09,0,0,0,.09.09l.63,0h.63l.63,0,.63,0h.63a.09.09,0,0,0,.09-.1l0-.59c0-.29,0-.29,0-.59s0-.3,0-.59,0-.3,0-.59,0-.3,0-.6,0-.29,0-.59a.19.19,0,0,1,.18-.19l.57,0,.56,0H153a.18.18,0,0,1,.2.18l0,.63c0,.32,0,.32,0,.64s0,.32,0,.64,0,.31,0,.63l0,.64c0,.32,0,.32,0,.63s0,.32,0,.64,0,.32,0,.64,0,.32,0,.63,0,.32,0,.64,0,.32,0,.64,0,.32,0,.63l0,.64c0,.32,0,.32,0,.64l0,.63a.18.18,0,0,1-.18.19m50.18-8.5q-2.21-2.46-4.45-4.89a3.31,3.31,0,0,0-2.23-1,516.11,516.11,0,0,0-60.55.25,3.28,3.28,0,0,0-2.21,1.05q-2.23,2.46-4.41,4.93a3,3,0,0,0-.76,2.25l.36,4.59a3.13,3.13,0,0,0,1.08,2.12q2.5,2.1,4.95,4.24a3.13,3.13,0,0,0,2.25.76,495.8,495.8,0,0,1,58.21-.24,3.19,3.19,0,0,0,2.24-.78c1.61-1.44,3.25-2.87,4.9-4.29A3.08,3.08,0,0,0,204,50.91c.11-1.53.21-3.06.32-4.59a3,3,0,0,0-.77-2.25"/><path class="cls-1" d="M115.25,50.8v-.16a3,3,0,1,1,6.09,0v.16a3,3,0,1,1-6.09,0"/></svg>