<svg xmlns="http://www.w3.org/2000/svg" viewBox="0 0 137.808 126.683"><defs><style>.a4458f04-0402-4834-b299-3e5c772da24e{isolation:isolate;}.abd07283-35a9-4386-b8b5-b164e41e4785{fill:#e4d9d2;}.b896948d-66b3-4223-b262-f24be08f9717{mix-blend-mode:multiply;}.a1fcb4b1-0ce8-404c-9b50-b648cd7c9859{fill:#c9b5a8;}</style></defs><title>seal</title><g class="a4458f04-0402-4834-b299-3e5c772da24e"><g id="b09cf20a-1a8e-4e12-9b88-fa56b5299001" data-name="Layer 1"><path class="abd07283-35a9-4386-b8b5-b164e41e4785" d="M111.223,46.5c.27-.963,1.469-.038,1.541.776C112.8,47.607,111.218,47.661,111.223,46.5Z"/><path class="abd07283-35a9-4386-b8b5-b164e41e4785" d="M117.124,49.062c.069-.268.393-.006.415.222C117.551,49.375,117.126,49.385,117.124,49.062Z"/><path class="abd07283-35a9-4386-b8b5-b164e41e4785" d="M126.149,45.1c-.373.276.033.3.2.423s.354.424.61.178c.211-.2.037-.453-.173-.508C126.79,45.193,126.361,44.942,126.149,45.1Z"/><path class="abd07283-35a9-4386-b8b5-b164e41e4785" d="M128.213,37.923c.012-.464-.261-.162-.46-.1s-.551.019-.515.371c.03.292.335.308.508.177C127.746,38.371,128.206,38.187,128.213,37.923Z"/><path class="abd07283-35a9-4386-b8b5-b164e41e4785" d="M122.85,56.993c.135.279.061.669.257.925.232.3.466-.073.4-.353a3.431,3.431,0,0,1-.144-.756,6.914,6.914,0,0,0-.338-1.6,2.607,2.607,0,0,1-.144-1.224c.048-.206.183-.372.214-.587a2.883,2.883,0,0,0-.036-.631,1.5,1.5,0,0,1,.05-.68c.093-.21.285-.362.4-.563.2-.354.692-.547.582-.995-.07-.28-.4-.918-.3-1.2.126-.331.775-.192,1.031-.245.164-.034.47-.087.431-.317-.046-.278-.343-.116-.482-.08-.253.066-.949-.071-.647-.488.108-.149.879-.258.65-.589-.087-.126-.264.1-.412-.027-.127-.1-.046-.253.026-.385-.179-.111-.122-.239.013-.337.183-.132.249-.019.264-.242,0-.046-.144-.045-.083-.165.043-.082.125-.023.184-.039.109-.029.267.024.369-.081.248-.256-.227-.476-.246-.752a.86.86,0,0,1,.384-.8c.193-.13.366-.2.114-.422-.135-.117-.228-.042-.245-.276a.4.4,0,0,1,.161-.368c.165-.1.131-.014.251.007.035.006.282.019.3.028.181.126-.009.439.32.452.253.009.259-.319.123-.494-.121-.156-.276-.1-.376-.286-.051-.1,0-.251-.038-.324-.049-.1-.122-.064-.159-.136a.368.368,0,0,1,.11-.467c.236-.158.347.026.312-.284-.019-.166-.148-.487.174-.4a.168.168,0,0,0,.323.066c.071-.134-.06-.144-.063-.239-.006-.157-.014-.075.06-.215.03-.058.139-.1.147-.178.018-.182-.115-.118-.176-.2a.632.632,0,0,1-.114-.522c.025-.069.152-.151.159-.207.017-.125-.078-.1-.113-.208-.074-.226-.02-.313.214-.388a.519.519,0,0,1,.326-.033c.137.069.022.13.108.229.12.139.34.152.336-.088,0-.216-.31-.2-.227-.37-.136-.016-.258-.243-.248-.378.024-.321.244-.027.378-.2a1.016,1.016,0,0,0-.136-.524c-.141-.116-.3.073-.423-.171-.145-.283.123-.247.2-.434a1.354,1.354,0,0,0-.132-.608c-.04-.079-.1-.1-.153-.191s-.023-.206-.1-.283c-.189-.193-.361,0-.539.1-.08.042-.151.128-.259.085s-.064-.156-.133-.221c-.258-.241-.218.089-.378.226-.232.2-.318-.026-.494-.128-.289-.167-.319.1-.43.3-.095.17-.271.237-.391.4-.135.181-.062.311-.1.515-.091.468-.405.566-.776.743-.218.105-.244.28-.009.433.153.1.344.037.5.087.332.109.181.9.507.861.122.485-.608.253-.7.567-.061.2.406.343.458.549.132.524-.6.592-.931.566-.193-.015-.4-.134-.591-.129s-.457.176-.333.394c.1.178.373.178.45.376.116.3-.141.27-.305.391-.13.629.787.112.669.643-.1.446-.713.031-.981.149-.633.281.354.557.487.7.184.19.035.316-.111.457-.056.055-.422.39-.469.358.235.156-.084.291-.216.344-.185.075-.394.081-.305.33.032.088.206.119.186.235-.011.062-.177.055-.211.136-.063.155.128.323.19.456a1.073,1.073,0,0,1,.134.548c-.024.075-.144.1-.171.184s.024.18.038.267c.028.168.108.355.036.509-.08.171-.285.154-.152.413.293.077,0,.554,0,.72.009.648.514-.085.757-.037.181.562-.06.789-.4,1.182-.111.128-.725.807-.31.926.22.063.283-.219.521-.013a.637.637,0,0,1,.149.5,1.707,1.707,0,0,1-.345,1.018c-.182.207-.985.432-.405.744.2.106.337.006.423.243.1.278-.087.247-.233.412s-.109.3,0,.492c.162.266.256.139.472.234.29.128.35.841.394,1.13a1.735,1.735,0,0,0,.148.577C122.631,56.815,122.755,56.8,122.85,56.993Z"/><path class="abd07283-35a9-4386-b8b5-b164e41e4785" d="M83.838,24.286c.088-.7.071-1.358.155-2.025.121-.968.483-1.276,1.453-1.464.38-.074.725-.035,1.106-.081a2.375,2.375,0,0,1,1.1-.067c.365.134.54.436.915.519.559.122,1.442.149,1.345,1-.031.271-.272.451-.329.7-.408,1.768,2.31,1.4,3.193,1.311a1.7,1.7,0,0,1,1.06.134c.32.194.36.6.627.8.611.46,1.455-.313,1.7.673a2.27,2.27,0,0,1,.907.135,1.656,1.656,0,0,1,.25.772c.065.593-.022.858.6,1.124s.732.33.873,1.044c.033.163.161.629,0,.78s-.41-.07-.641.021c-.039.4-.662.21-.933.386-.457.3-.276.568-.2,1.024.28,1.6-1.059-.123-1.319.4-.093.188.187.981.2,1.217a1.733,1.733,0,0,1-.268.941,3.176,3.176,0,0,0-.177,1.617c.035.186.194.4.21.564.007.073-.146.673-.185.625a1.905,1.905,0,0,0,.941.481c.183.408-.38.358-.32.68a3.359,3.359,0,0,1,1.028-.155c.408.041.564.192.946-.051a14.724,14.724,0,0,0,1.376-1.227c.2-.164.356-.64.55-.7.339-.1.532.382.618.608a1.633,1.633,0,0,1,.138.529c-.093.33-.163.123-.339.228s-.707.359-.137.515c.3-.442.959-.114,1.355.041a1.392,1.392,0,0,1,.695.409c.308.5-.177.383-.228.658-.118.627.857.215,1.216.291a3.778,3.778,0,0,0,1.483.124c.211-.033.332-.2.564-.078.049.025.33.363.262.386.233-.079.738-.125.851.145.154.369-.352.365-.171.774.11.249.644.5.7.067.043-.352-.488-.28-.48-.689.123-.043.216-.164.339-.208-.044-.238-.2-.416-.153-.66a1.068,1.068,0,0,1,.415-.108c.05.135.256.618.5.484.172-.1-.056-.461-.095-.587.393-.2.566.035.74.312.311.5.126.433.688.488.3.03.6-.052.758.3.184.406-.094.388-.428.541a1.69,1.69,0,0,0,.4,1.159c.424-.052.065-1.252.793-1.068.748.189-.277.748-.23,1.076.721-.24.276.249.644.5.5.334.228-.445.342-.6.281-.392.738-.07.9.09.183.184.267.654.629.29-.2-.812.737-.207,1.108-.149.644.1.888-.091,1.039.681.1.505-.012.873-.612.824-.136-.011-.1-.185-.211-.194s-.219.078-.329.075-.275.126-.385.1c-.129-.027-.1-.2-.195-.223-.331-.088-1.034-.206-1.225.242a1.138,1.138,0,0,0,.86.379c.293.027.643-.155.9-.081.57.168-.132.337-.151.6-.043.594.55.268.84.293-.151.683.849.007.769.818-.022.231-.27.15-.124.515.1.251.23.415.534.268.151.3-.378.581-.286,1.039.085.428.394.825-.2,1.025-.687.231-.537-.517-.753-.932-.392-.755-.4.129-.655.433-.593-.128-.136-.694-.106-1.005.087-.9-.4.05-.74.08-.128-.187-.14-1-.6-.746-.348.191.095.791-.417.842-.483.048-.548-.685-1.086-.66-.256.011-.155.209-.476.109-.143-.045-.267-.249-.4-.327-.185-.109-.327-.019-.512-.2-.095-.093-.024-.265-.153-.359-.066-.048-.306.071-.394.032-.133-.06-.115-.262-.236-.29-.139-.033-.25.067-.387.05-.731-.1-.466-.4-.675-1-.647.2-.649-.187-1.2-.311-.475-.106-.532.039-.87-.391-.12-.152-.11-.31-.321-.419-.129-.066-.36.023-.52-.068-.253-.142-.368-.616-.525-.848a2.121,2.121,0,0,0-.8-.664c-.56-.3-1.349-.227-1.794-.6-.358-.3-.284-.459-.861-.405-.172.015-1.1.145-1.126.354-.038.339.838.189,1.008.189a1.2,1.2,0,0,1,.9.332c.329.265.432.416.88.387s.65-.282,1.042.025c.593.464.543,1.481,1.093,1.947a5.359,5.359,0,0,0,.879.426,1.108,1.108,0,0,0,1.065.14c.2.335.246.606.552.862a5.713,5.713,0,0,0,.755.445c.386.225.6.715,1.012.9a10.735,10.735,0,0,0,1.331.392,3.194,3.194,0,0,1,1.681,1.344,2.353,2.353,0,0,0,1.91.7c.4,0,1.906-.442,2.009.23-.262.038-.618.166-.329.44.263.25.467-.049.725-.126.657-.2.981.462.356.78-.353.18-.782-.093-1.094.127-.285.2-.144.718-.726.614-.416-.074-.457-.637-.743-.758s-.76.194-1.055.287c-.324.1-1,.181-.587.654.248.28.7.1.992.11a8.442,8.442,0,0,1,.986.259c.447.071.809-.271,1.238-.267a2.259,2.259,0,0,1,1.063.5c.537.31,1.2-.081,1.662.433.552.621-.034.868-.255,1.394-.19.452-.044,1.157-.887.888a.6.6,0,0,1-.072-.271c.306-.136.2-.4.13-.657-.113-.44-.278-.651-.712-.379-.135.084-.156.323-.324.379-.257.085-.27-.145-.392-.132-.533.057-.276.326-.511.7-.155.245-.793.381-.264.771.192.141.4-.028.534.116s-.034.415.125.545c.3.246.661-.292,1,.02a.584.584,0,0,1-.147.872c-.4.241-.658-.021-.963-.172a32.359,32.359,0,0,0-3.129-1.24,3.713,3.713,0,0,1-.884-.436c-.557-.413-.8-1.128-1.38-1.58-.244-.19-1.181-1.8-1.492-1.09-.136.31.377,1.2.568,1.437a10.952,10.952,0,0,0,2.194,1.835c.541.4,1.024.9,1.554,1.3a4.561,4.561,0,0,0,1.853.585c.326.069.676.207,1,.242.3.033.873-.092,1.126.036.478.243.259.61.214.974-.023.182-.221.32.021.481.445.3,1.238-1.108,1.674-.163.173.374-.206.586-.014.938.155.285.589.319.809.559.815.888-.678,1.106-1.317.994-.685-.119-1.263-.569-1.939-.715-.614-.132-1.371.029-1.927-.321-.671-.423-.242-1.349-.989-1.844-.881-.584-1.328.564-2.153.545-.326-.008-.545-.313-.876-.378-.362-.072-.63.058-.93-.231-.425-.408-.379-2.047-1.22-1.624.029.422.385,1.436.088,1.762-.4.437-1.023-.2-1.443-.382s-1.1-.306-1.42.16c-.4.584.421.794.865.85.25.413-.185.476-.358.74a5.141,5.141,0,0,1,1.588-.132,9.347,9.347,0,0,0,1.691-.245,1.943,1.943,0,0,1,1.442.179c.314.175,1.042.616,1.368.418-.026-.211-.047-.967.252-1.033.344-.076.356.709.407.973.062.32.052.906.306,1.137a3.194,3.194,0,0,0,1.054.356,5.338,5.338,0,0,1,1.951.481c.913.513,1.616.6,1.051,1.777-.331.691-1.046,1.421-.561,2.231a.479.479,0,0,0,.864.023c.081-.121.044-.348.128-.5s.245-.213.321-.339c.356-.591.043-1.514,1.047-1.539,1.142-.028.42.979.2,1.5-.115.264-.143.939.185,1.105.41.21.579-.263.778-.455.291-.282.677-.431.949-.735.225-.252.362-.544.565-.785s.677-.536.431-.921c-.149-.234-.77-.316-1.017-.413-.426-.166-1.332-.939-.519-1.368.414-.218,1.3.33,1.738.388s.79-.147,1.088.244c.224.294.125.817.606.766.5-.053.46-.633.414-.979a.974.974,0,0,1,.254-.994c.922.111.6,1,.962,1.5.4.549,1.068.877,1.445,1.473a8.845,8.845,0,0,0,1.24,1.673,12.96,12.96,0,0,1,2.357,3.272c.19.423.053.921-.426.626-.256-.157-.4-.608-.541-.86a5.482,5.482,0,0,0-1.041-1.4c-.3-.271-1.27-2.062-1.594-.956-.131.446.266.727.394,1.128.093.294.037.98.477.892.017-.375.245-1.162.721-.575.212.26-.008.456-.025.7a2.52,2.52,0,0,0,.079.447c.04.46-.276.892-.8.673-.355-.147-.475-.684-.674-1-.741.072-.541.769-.547,1.251-.185.022-.4.181-.294.39.138.284.272.012.474.03.417.036.722.062.848.552L78.65,82.259,58.505,87.217,35.189,91.675l-.272-.862L22.433,93.847,5.142,97.5c.635-.577,1.439-1.659,2.1-2.221A14.5,14.5,0,0,1,9.048,94c.477-.292,1.1-.372,1.407-.91.236-.417.154-.919.333-1.35a3.333,3.333,0,0,1,.867-1.188,3.56,3.56,0,0,1,1.356-.651c.461-.1.911-.09,1.258-.488.509-.586.029-1.629.348-2.368.269-.623.542-1.223.862-1.812a21.274,21.274,0,0,1,1.94-3.447c.5-.61,1.215-.609,1.768-1.083a7.564,7.564,0,0,1,1.734-1.177c1.224-.592,1.687-1.849,2.433-2.962s1.469-2.225,2.181-3.35c.641.239.737,1.1.872,1.681A2.737,2.737,0,0,0,27.561,76.5a7.063,7.063,0,0,0,6.428.875c.617-.305,1.076-.838,1.68-1.16a4.788,4.788,0,0,1,2.155-.483c.378-.01.706-.054,1.07-.035A1.045,1.045,0,0,0,39.92,75.3c.278-.351.236-.609.6-.834a5.982,5.982,0,0,1,1.141-.345c.777-.274,1.6-.421,2.391-.668,1.446-.452,2.8-.846,3.625-2.259.357-.607.339-1.594,1.042-1.91.729-.328,1.484.115,2.134-.411a6.5,6.5,0,0,0,1.387-1.422,2.7,2.7,0,0,0,.451-.833c.086-.3.225-.637.288-.97.084-.44-.017-.577-.29-.925-.7-.9-.328-1.663-.154-2.675a11.466,11.466,0,0,1,1.43-4.081c.441-.7,1.29-1,1.824-1.608.752-.861.113-1.676.091-2.667a9.784,9.784,0,0,1,.838-3.6c.252-.584.521-1.194.8-1.755a12.216,12.216,0,0,0,.853-1.57c.2-.611-.084-1.052-.239-1.652-.136-.527-.328-1-.437-1.519.816-.255,1.586-.4,2.385-.617a3.122,3.122,0,0,0,1.129,1.108,6.132,6.132,0,0,0,1.272.761,3.7,3.7,0,0,0,2.509-.84,4.395,4.395,0,0,0,1.2-2.41c.125-.577-.179-1.137-.151-1.717.039-.784.917-1.416.879-2.209-.031-.631-.587-1.585-.09-2.117.6-.638,1.563,0,2.255-.044A1.228,1.228,0,0,0,70,35.1c.305-.377.075-.587.026-1.043A4.855,4.855,0,0,1,71.5,30.205c.536-.478,1.311-.618,1.736-1.217a3.2,3.2,0,0,0,.386-2.011c-.041-.888.616-1.124,1.008-1.807.515-.9-.055-1.122-.374-1.888a2.786,2.786,0,0,1-.151-1.191,4,4,0,0,1,.132-1.263Z"/><path class="abd07283-35a9-4386-b8b5-b164e41e4785" d="M128.442,35.1c.206-.569.436-.034.482.325a5.919,5.919,0,0,1-.352,1.949c-.132.582-.459,1.237-.63,1.827-.154.53.078,1.437-.3,1.9a.456.456,0,0,1-.369.174c-.128-.257.1-.356.234-.564-.65.04.045-.621.144-.868.186-.462,0-.9.133-1.305.037-.111.226-.364.288-.523a3.686,3.686,0,0,0,.213-.566,5.012,5.012,0,0,0,.259-1.184C128.541,35.9,128.316,35.446,128.442,35.1Z"/><path class="abd07283-35a9-4386-b8b5-b164e41e4785" d="M125.072,45.483a.359.359,0,0,1,.244-.415c.134.281.525,1.823-.105,1.72.549.092,0,.494.148.764.6-.427.315.569.265.86-.057.332-.009,1.179-.532,1.069-.077.267.084.536.334.373.162.4,0,1.549-.48,1.647-.179-.424.283-.847.144-1.246-.148-.423-.793-.2-.6-.678.156-.383.609-.412.7-.887a2.744,2.744,0,0,0,.093-.6c-.07-.207-.542-.134-.169-.414-.1-.151-.506-.2-.434-.459.055-.2.424-.044.532-.337.041-.113-.135-.2-.127-.329.009-.15.119-.177.118-.337,0-.406-.356-.983.22-1.132Z"/><path class="abd07283-35a9-4386-b8b5-b164e41e4785" d="M124.944,52.594c.028.108-1.009,1.369-.22,1.642.111-.254-.085-.436-.08-.7.008-.4.143-.288.345-.613.166-.265.354-.993.133-1.188C124.908,51.767,125.046,52.388,124.944,52.594Z"/><path class="abd07283-35a9-4386-b8b5-b164e41e4785" d="M123.718,57.248c.1.38.99-1.785.86-2.154-.362-.257-.048.955-.773,1.73A.486.486,0,0,0,123.718,57.248Z"/><path class="abd07283-35a9-4386-b8b5-b164e41e4785" d="M123.6,56.2c-.19-.234-.009-.387-.072-.6-.085-.285-.27-.3-.367-.52-.14-.314.036-1.246.408-1.314.343.417-.248.9.013,1.359.023.04.23.093.3.191a1.23,1.23,0,0,1,.111.433C123.983,56,123.645,56.3,123.6,56.2Z"/><path class="abd07283-35a9-4386-b8b5-b164e41e4785" d="M124.691,50.345c-1.015.2.237.957.08.142C124.811,50.312,124.691,50.345,124.691,50.345Z"/><path class="abd07283-35a9-4386-b8b5-b164e41e4785" d="M124.064,51.993c.408.291-.169,1.471.3,1.011.352-.343-.047-1.169-.167-1.55C124.021,51.12,123.756,51.775,124.064,51.993Z"/><path class="abd07283-35a9-4386-b8b5-b164e41e4785" d="M124.278,54.66c-.235.059.294.374.453.145C124.93,54.519,124.318,54.638,124.278,54.66Z"/><path class="abd07283-35a9-4386-b8b5-b164e41e4785" d="M123.273,52.337c-.355-.1-.282,1.157-.112,1.366.188.047.282,0,.3-.172C123.465,53.531,123.694,52.455,123.273,52.337Z"/><path class="abd07283-35a9-4386-b8b5-b164e41e4785" d="M124.038,53.594c-.121-.3-.268.068-.189.375C123.849,53.969,124.22,54.463,124.038,53.594Z"/><path class="abd07283-35a9-4386-b8b5-b164e41e4785" d="M11.189,44.277l1.5.366a3.606,3.606,0,0,0-1.474,2.046,2.974,2.974,0,0,0,.395,2.41,3.237,3.237,0,0,0,2.042,1.447A3.152,3.152,0,0,0,16.1,50.2a3.026,3.026,0,0,0,1.444-1.964,2.759,2.759,0,0,0,.061-1.19,3.4,3.4,0,0,0-.16-.611,7.182,7.182,0,0,0-.3-.7l1.528.374a4.718,4.718,0,0,1,.054,2.435,4.335,4.335,0,0,1-2.009,2.763,4.263,4.263,0,0,1-3.365.516,4.43,4.43,0,0,1-2.6-1.758,4.355,4.355,0,0,1-.71-3.754A4.4,4.4,0,0,1,11.189,44.277Z"/><path class="abd07283-35a9-4386-b8b5-b164e41e4785" d="M17.621,39.963l4.425-1.069-.608,1.474-4.211.934-.09.216,3.271,1.35-.5,1.2-7.99-3.29.583-1.413a3.813,3.813,0,0,1,1.536-2.042,2.364,2.364,0,0,1,2.07-.056,2.453,2.453,0,0,1,1.26,1.087A2.354,2.354,0,0,1,17.621,39.963Zm-1.535,1.125.158-.383q.7-1.715-.6-2.253c-.818-.339-1.455.051-1.913,1.161l-.177.428Z"/><path class="abd07283-35a9-4386-b8b5-b164e41e4785" d="M23.778,31.7l-1.921,3.163,1.294,1.912-.729,1.2-5.631-8.424,9.992,1.242-.741,1.22Zm-1.323-.183-3.178-.429,1.815,2.674Z"/><path class="abd07283-35a9-4386-b8b5-b164e41e4785" d="M24.942,21.446l-1.916,2.321,1.6,1.322,1.851-2.238.946.78-1.85,2.239,3.17,2.621-.83,1-6.663-5.5L24,20.664Z"/><path class="abd07283-35a9-4386-b8b5-b164e41e4785" d="M28.8,17.573,33.92,22.94l-.944.9L27.86,18.47l-1.44,1.369-.844-.886,3.817-3.638.846.889Z"/><path class="abd07283-35a9-4386-b8b5-b164e41e4785" d="M36.252,11.586l-2.79,2.056L34.7,15.313l2.708-2,.727.988-2.709,2,1.713,2.324,2.79-2.056.727.988-3.839,2.828-5.126-6.957L35.525,10.6Z"/><path class="abd07283-35a9-4386-b8b5-b164e41e4785" d="M42.622,16.272,38.6,8.623l1.606-.843a6.567,6.567,0,0,1,1.941-.732,3.87,3.87,0,0,1,1.7.072,4.129,4.129,0,0,1,2.677,2.217,4.208,4.208,0,0,1-.632,4.944,6.721,6.721,0,0,1-1.687,1.158Zm.584-1.692.52-.274a4.837,4.837,0,0,0,1.206-.844,2.957,2.957,0,0,0,.429-3.513,3,3,0,0,0-1.914-1.6,3.606,3.606,0,0,0-2.6.476l-.52.275Z"/><path class="abd07283-35a9-4386-b8b5-b164e41e4785" d="M54.785,10.9,52.623,2.532l1.258-.324a5.658,5.658,0,0,1,1.373-.215,2.073,2.073,0,0,1,.963.219,2.372,2.372,0,0,1,.764.652,2.486,2.486,0,0,1,.464.922,2.044,2.044,0,0,1-.3,1.7,2.1,2.1,0,0,1,1.257.525,2.306,2.306,0,0,1,.729,1.209,2.313,2.313,0,0,1-.265,1.839,2.354,2.354,0,0,1-.788.821,5.557,5.557,0,0,1-1.383.526Zm.03-5.1.4-.1a1.508,1.508,0,0,0,.953-.579,1.245,1.245,0,0,0,.09-1,1.191,1.191,0,0,0-.567-.809,1.45,1.45,0,0,0-1.055-.056l-.445.117Zm.926,3.587.782-.2a2.008,2.008,0,0,0,1.17-.662,1.258,1.258,0,0,0-.459-1.835,2.158,2.158,0,0,0-1.506,0l-.641.166Z"/><path class="abd07283-35a9-4386-b8b5-b164e41e4785" d="M62.908,5.37,59.517.837l1.489-.18,2.377,3.19L64.935.18,66.424,0,64.2,5.214l.45,3.705-1.3.157Z"/><path class="abd07283-35a9-4386-b8b5-b164e41e4785" d="M75.313,3.525l3.7.429L79.407.6l1.3.15-1,8.585-1.3-.153.465-4.007-3.7-.43-.465,4.009-1.3-.151L74.407.018l1.3.147Z"/><path class="abd07283-35a9-4386-b8b5-b164e41e4785" d="M87.811,9.274,84.26,8.237,82.746,9.979,81.4,9.585l6.684-7.614,1.379,9.974-1.369-.4Zm-.166-1.325-.405-3.18L85.126,7.213Z"/><path class="abd07283-35a9-4386-b8b5-b164e41e4785" d="M91,12.589l4.129-8.254,2.687,8.716,2.686-5.37,1.166.582-4.1,8.2-2.692-8.7-2.708,5.41Z"/><path class="abd07283-35a9-4386-b8b5-b164e41e4785" d="M100.044,17.441l5.171-6.922,1.454,1.085a6.606,6.606,0,0,1,1.5,1.438,3.865,3.865,0,0,1,.666,1.567,4.129,4.129,0,0,1-.847,3.369,4.208,4.208,0,0,1-4.733,1.56,6.714,6.714,0,0,1-1.773-1.024Zm1.778-.2.471.352a4.91,4.91,0,0,0,1.281.727,2.974,2.974,0,0,0,3.356-1.127,3.008,3.008,0,0,0,.619-2.417A3.612,3.612,0,0,0,106,12.634l-.473-.353Z"/><g class="b896948d-66b3-4223-b262-f24be08f9717"><path class="abd07283-35a9-4386-b8b5-b164e41e4785" d="M30.207,113.77l4.843-7.156,1.075.727a5.636,5.636,0,0,1,1.071.886,2.08,2.08,0,0,1,.472.867,2.34,2.34,0,0,1,.018,1.005,2.462,2.462,0,0,1-.385.957,2.043,2.043,0,0,1-1.47.905,2.077,2.077,0,0,1,.439,1.289,2.439,2.439,0,0,1-1.978,2.366,2.377,2.377,0,0,1-1.138-.046,5.586,5.586,0,0,1-1.311-.692Zm1.768-.285.667.453a2,2,0,0,0,1.27.441,1.2,1.2,0,0,0,.9-.545,1.22,1.22,0,0,0,.179-1.013,2.181,2.181,0,0,0-1-1.129l-.547-.37Zm2.076-3.068.337.229a1.509,1.509,0,0,0,1.064.331,1.25,1.25,0,0,0,.812-.6,1.191,1.191,0,0,0,.233-.96,1.451,1.451,0,0,0-.658-.827l-.379-.259Z"/><path class="abd07283-35a9-4386-b8b5-b164e41e4785" d="M42.4,111.179l-3.45,6.565,2.25,1.181-.571,1.086-3.4-1.788,4.02-7.652Z"/><path class="abd07283-35a9-4386-b8b5-b164e41e4785" d="M47.288,113.518l-1.846,4.866a2.873,2.873,0,0,0-.238,1.653,1.946,1.946,0,0,0,2.862,1.085,2.818,2.818,0,0,0,.918-1.393l1.847-4.868,1.219.463-1.973,5.2a3.119,3.119,0,0,1-1.595,1.8,3.2,3.2,0,0,1-4.387-4.072l1.973-5.2Z"/><path class="abd07283-35a9-4386-b8b5-b164e41e4785" d="M58.932,118.276l-3.376-.775-.466,2.024,3.28.754-.276,1.193-3.278-.751-.646,2.813,3.377.777-.276,1.194-4.646-1.067,1.934-8.423,4.647,1.067Z"/><path class="abd07283-35a9-4386-b8b5-b164e41e4785" d="M68.459,122.928l2.574,3.755-1.593-.044-2.372-3.6-.235-.007-.1,3.537-1.3-.037.236-8.638,1.528.042a3.809,3.809,0,0,1,2.455.711,2.357,2.357,0,0,1,.787,1.913,2.445,2.445,0,0,1-.57,1.564A2.344,2.344,0,0,1,68.459,122.928Zm-1.595-1.035.415.011q1.851.052,1.889-1.364.037-1.328-1.764-1.375l-.465-.013Z"/><path class="abd07283-35a9-4386-b8b5-b164e41e4785" d="M74.513,117.778l.633,8.618-1.3.1-.633-8.62Z"/><path class="abd07283-35a9-4386-b8b5-b164e41e4785" d="M78.808,126.059l-1.6-8.492,1.783-.336a6.6,6.6,0,0,1,2.072-.127,3.859,3.859,0,0,1,1.605.57A4.468,4.468,0,0,1,83.8,124a4.066,4.066,0,0,1-1.284,1.112,6.666,6.666,0,0,1-1.952.613Zm1.055-1.445.578-.108a4.913,4.913,0,0,0,1.4-.453,2.955,2.955,0,0,0,1.443-3.232,3,3,0,0,0-1.362-2.09,3.6,3.6,0,0,0-2.625-.311l-.578.111Z"/><path class="abd07283-35a9-4386-b8b5-b164e41e4785" d="M91.41,118.169l3.354-1.228.1.266a5.9,5.9,0,0,1,.377,1.7,3.62,3.62,0,0,1-.262,1.478,3.908,3.908,0,0,1-2.408,2.326,4.215,4.215,0,0,1-3.368-.16,4.5,4.5,0,0,1,.39-8.305,4.4,4.4,0,0,1,1.919-.261,5.487,5.487,0,0,1,2.014.692l-.567,1.156a3.157,3.157,0,0,0-2.921-.438,3.093,3.093,0,0,0-1.833,1.68,3.157,3.157,0,0,0-.072,2.508,3.243,3.243,0,0,0,4.059,1.966,2.591,2.591,0,0,0,1.4-1.2,2.3,2.3,0,0,0,.263-1.765l-2.021.742Z"/><path class="abd07283-35a9-4386-b8b5-b164e41e4785" d="M100.02,110.875l-3.05,1.644.985,1.828,2.961-1.6.581,1.08-2.961,1.595,1.371,2.543,3.049-1.644.582,1.08-4.2,2.262-4.1-7.609,4.2-2.262Z"/><path class="abd07283-35a9-4386-b8b5-b164e41e4785" d="M110.369,112.933l-4.825-8.144,6.684,3.038-2.176-7.059,7.4,5.849-1,.89-4.095-3.34,1.828,5.894-5.595-2.542,2.781,4.517Z"/><path class="abd07283-35a9-4386-b8b5-b164e41e4785" d="M115.613,97.286l5.713,4.729-.832,1-5.713-4.728-1.266,1.53-.944-.781,3.361-4.062.946.782Z"/><path class="abd07283-35a9-4386-b8b5-b164e41e4785" d="M124.347,98.175l-7.857-4.842,8.919-1.907L120.3,88.275l.684-1.111,7.805,4.812-8.905,1.915,5.149,3.173Z"/><path class="abd07283-35a9-4386-b8b5-b164e41e4785" d="M125.178,80.833l.16,1.218a1.821,1.821,0,0,0-.839.257,1.3,1.3,0,0,0-.45.592,1.341,1.341,0,0,0-.072.95.956.956,0,0,0,.559.629q.582.251,1.308-.463l.662-.654a3.688,3.688,0,0,1,1.561-1.007,2.347,2.347,0,0,1,1.573.143,2.645,2.645,0,0,1,1.5,1.506,2.728,2.728,0,0,1-.062,2.134,2.655,2.655,0,0,1-1.343,1.448,3.054,3.054,0,0,1-2.078.09l.252-1.328a2.241,2.241,0,0,0,1.091.125,1.487,1.487,0,0,0,1-1.952,1.545,1.545,0,0,0-1.245-.894,1.193,1.193,0,0,0-.442.047,1.823,1.823,0,0,0-.454.222,3.859,3.859,0,0,0-.491.4l-.646.63A2.4,2.4,0,0,1,124,85.7a2.076,2.076,0,0,1-1.2-1.326,2.686,2.686,0,0,1,.122-1.963A2.586,2.586,0,0,1,125.178,80.833Z"/><path class="abd07283-35a9-4386-b8b5-b164e41e4785" d="M132.376,80.5a.785.785,0,0,1-.5-.976.778.778,0,0,1,1.435-.12.744.744,0,0,1,.049.591.77.77,0,0,1-.982.5Z"/></g><path class="a1fcb4b1-0ce8-404c-9b50-b648cd7c9859" d="M24.916,95.87c-3.024.68-4.63-1.441-5.319-4.5a19.7,19.7,0,0,1-.266-6.478.209.209,0,0,0-.173-.23c-2-.3-3.851-.746-5-1.02A.13.13,0,0,0,14,83.7c-1.469,3.866-3.44,7.208-7.436,8.108a5.124,5.124,0,0,1-6.4-4.12,6.386,6.386,0,0,1,5.069-7.806,15.446,15.446,0,0,1,6.206.044c.065.013.116-.044.138-.108.6-1.757,1.489-4.476,3.063-8.154,1.457-3.4,4.92-10.915,8.547-11.731,2.11-.475,3.153.732,3.585,2.649.58,2.579.052,6.437-.478,9.2-.88,4.582-1.725,7.509-2.34,10.5-.014.062,0,.141.064.139a9.209,9.209,0,0,0,1.752-.206,4.9,4.9,0,0,0,2.481-1.3,6.567,6.567,0,0,0,1.519-2.725.92.92,0,0,1,.668-.657,1.012,1.012,0,0,1,1.174.863,2.33,2.33,0,0,1-.094,1.192A7.091,7.091,0,0,1,25.9,84.64a13.726,13.726,0,0,1-2.313.3.146.146,0,0,0-.141.124,21.27,21.27,0,0,0-.267,6.984c.366,1.625,1.035,1.815,1.915,1.685a1.042,1.042,0,0,1,1.288.685c.115.513-.241,1.179-1.465,1.455ZM5.357,88.94c2.384-.536,3.853-3,5.048-5.926.026-.061.006-.14-.059-.151a13.729,13.729,0,0,0-4.893.012c-2.752.62-3.611,2.541-3.266,4.071a2.558,2.558,0,0,0,3.17,1.992Zm14.231-6.986a.174.174,0,0,0,.2-.144c.9-4.96,2.178-9.939,3.617-15.026a9.667,9.667,0,0,0,.57-3.955c-.091-.409-.3-.566-.587-.5-.671.152-1.78,1.514-2.885,3.7a67.461,67.461,0,0,0-2.782,6.605c-1.272,3.46-2.181,6.469-2.667,8-.023.072-.008.154.064.175,1.072.3,2.724.783,4.469,1.143Z"/><path class="a1fcb4b1-0ce8-404c-9b50-b648cd7c9859" d="M35.966,82.346a3.559,3.559,0,0,1-.377-.989,4.785,4.785,0,0,1-.07-1.607c.184-1.476.379-2.729.751-4.706a.452.452,0,0,0,0-.194.4.4,0,0,0-.3-.314c-.615-.143-1.922-.415-2.536-.538-.213-.045-.28,0-.342.214-.78,2.69-1.424,4.808-1.595,5.371a1.411,1.411,0,0,1-1.008.988,1.03,1.03,0,0,1-.452,0,.76.76,0,0,1-.595-.618,2.384,2.384,0,0,1,.128-1.206c.633-2.018,1.184-4,1.481-5.173a.143.143,0,0,0-.1-.157A3.631,3.631,0,0,1,29.37,72.38a3.1,3.1,0,0,1-.7-1.344,2.6,2.6,0,0,1,1.254-2.842,2.477,2.477,0,0,1,2.458,0,2.663,2.663,0,0,1,1.237,1.775,3.875,3.875,0,0,1,.091.815,5.451,5.451,0,0,1-.035.594c-.008.064.059.1.122.106,1.386.066,2.706.125,3.49.125a2.973,2.973,0,0,1,2.562.893,2.054,2.054,0,0,1,.367.806,4.4,4.4,0,0,1-.016,1.61l-.5,3.359a6.359,6.359,0,0,0-.162,1.915.883.883,0,0,0,.559.643,1.472,1.472,0,0,0,.915.061,2.569,2.569,0,0,0,1.094-.582c1.453-1.272,2.485-3.9,3.021-5.606a.911.911,0,0,1,.661-.658,1.014,1.014,0,0,1,1.165.883,2.409,2.409,0,0,1-.073,1.188c-.21.744-.447,1.487-.728,2.227-1.073,2.78-2.6,5-5.5,5.653C38.8,84.416,36.922,84.016,35.966,82.346ZM31.54,71.178a3.229,3.229,0,0,0,.023-.387,1.661,1.661,0,0,0-.038-.364.557.557,0,0,0-.218-.377.3.3,0,0,0-.224-.03.355.355,0,0,0-.1.04.466.466,0,0,0-.227.32.5.5,0,0,0,.006.185,1,1,0,0,0,.23.41,1.324,1.324,0,0,0,.4.305C31.464,71.311,31.531,71.253,31.54,71.178Z"/><path class="a1fcb4b1-0ce8-404c-9b50-b648cd7c9859" d="M49.881,81.932c-2.785.627-4.721-.557-5.188-2.63a4.884,4.884,0,0,1-.078-1.6c.143-1.355,1.721-9.406,2.887-15.257a.091.091,0,0,0-.1-.113l-1.767.349a.8.8,0,0,1-.349-1.548l2.5-.7a.194.194,0,0,0,.144-.139c.434-2.173.75-3.744.81-4.036a1.626,1.626,0,0,1,1.216-1.269l2.2-.494a.67.67,0,0,1,.8.79c-.1.47-.429,2.107-.765,3.753-.012.068.027.142.093.126l1.866-.526a1.179,1.179,0,0,1,1.6.8A1.23,1.23,0,0,1,54.66,60.9l-2.839.558a.2.2,0,0,0-.152.155l-.266,1.3c-1.874,9.2-2.336,11.43-2.686,13.821a3.594,3.594,0,0,0,0,1.282,1.028,1.028,0,0,0,1.351.863,5.056,5.056,0,0,0,2.772-2.46,19.2,19.2,0,0,0,1.638-3.831.907.907,0,0,1,.662-.65,1.016,1.016,0,0,1,1.177.867,2.286,2.286,0,0,1-.1,1.2c-.792,2.462-1.692,4.847-3.337,6.378a6.5,6.5,0,0,1-3.006,1.542Z"/><path class="a1fcb4b1-0ce8-404c-9b50-b648cd7c9859" d="M59.166,79.835c-2.8.631-4.651-.678-5.1-2.663A4.616,4.616,0,0,1,54,75.589c.306-2.468.754-4.842,1.912-10.566a1.613,1.613,0,0,1,1.215-1.254l2.191-.494a.669.669,0,0,1,.8.789C58.872,70.2,58.4,72.606,58.105,74.626a4.194,4.194,0,0,0-.091,1.395.9.9,0,0,0,.56.65,1.461,1.461,0,0,0,.915.059,2.524,2.524,0,0,0,1.1-.582c1.452-1.271,2.485-3.9,3.02-5.606a.919.919,0,0,1,.665-.658,1.012,1.012,0,0,1,1.167.878,2.4,2.4,0,0,1-.079,1.194c-.215.743-.447,1.486-.727,2.227-1.053,2.724-2.591,5.006-5.465,5.652ZM57.147,59.066a2.116,2.116,0,1,1,2.528,1.6A2.112,2.112,0,0,1,57.147,59.066Z"/><path class="a1fcb4b1-0ce8-404c-9b50-b648cd7c9859" d="M66.256,74.733c-.411-1.891,1.013-3.61,3.109-4.083a5.488,5.488,0,0,1,2.042-.059.111.111,0,0,0,.119-.135c-.642-3.353-2.652-4.6-3.095-6.88-.021-.116-.172-.165-.229-.061A24.018,24.018,0,0,0,66.507,68.1c-.574,1.954-1.017,3.409-1.156,3.863a1.413,1.413,0,0,1-1.006.988,1.035,1.035,0,0,1-.453,0,.762.762,0,0,1-.6-.618,2.406,2.406,0,0,1,.128-1.206c.429-1.367.815-2.707,1.115-3.8.981-3.608,2.283-7.554,6.059-8.4a2.855,2.855,0,0,1,3.4,1.6,1.074,1.074,0,0,1-1.946.909A.719.719,0,0,0,71.192,61a.885.885,0,0,0-.69.849,2.488,2.488,0,0,0,.057.575c.209.921.961,1.635,2.26,2.956a9.951,9.951,0,0,1,3,5.29c.012.07.058.148.131.131,1.763-.4,2.561-1.953,3.179-3.756a.892.892,0,0,1,.651-.615,1.035,1.035,0,0,1,1.2.862,2.06,2.06,0,0,1-.088,1.091c-.987,3.057-2.515,4.214-5.1,4.744a.169.169,0,0,0-.127.119,5.932,5.932,0,0,1-4.408,4.026C69.071,77.768,66.684,76.7,66.256,74.733Zm5.272-1.8a.114.114,0,0,0-.066-.144,3.629,3.629,0,0,0-1.657-.039c-1,.225-1.6.9-1.458,1.518a1.147,1.147,0,0,0,1.455.649A2.442,2.442,0,0,0,71.528,72.933Z"/><path class="a1fcb4b1-0ce8-404c-9b50-b648cd7c9859" d="M78.719,71.621a4.59,4.59,0,0,1-.067-1.583c.307-2.467.753-4.842,1.913-10.566a1.609,1.609,0,0,1,1.214-1.254l2.192-.494a.668.668,0,0,1,.8.79c-1.246,6.133-1.718,8.542-2.013,10.561a4.246,4.246,0,0,0-.09,1.4.887.887,0,0,0,.56.647,1.461,1.461,0,0,0,.913.062,2.572,2.572,0,0,0,1.1-.583c1.454-1.271,2.487-3.9,3.021-5.606a.917.917,0,0,1,.664-.658,1.012,1.012,0,0,1,1.169.878,2.423,2.423,0,0,1-.079,1.194c-.217.743-.448,1.486-.729,2.227-1.053,2.724-2.591,5-5.464,5.652C81.016,74.914,79.165,73.606,78.719,71.621ZM81.8,53.515a2.116,2.116,0,1,1,2.529,1.6A2.113,2.113,0,0,1,81.8,53.515Z"/><path class="a1fcb4b1-0ce8-404c-9b50-b648cd7c9859" d="M96.892,67.535a6.5,6.5,0,0,1-.082-2.121c.1-.882.408-2.6.884-5.374a4.819,4.819,0,0,0,.058-1.732.79.79,0,0,0-1.069-.672c-2.465.557-3.95,4.73-4.447,7.331-.538,2.826-1.045,5.272-1.33,6.723A1.6,1.6,0,0,1,89.7,72.947l-2.176.489a.666.666,0,0,1-.8-.78c.331-1.648,1.262-6.326,3.028-15.281a1.571,1.571,0,0,1,1.2-1.223l2.17-.489a.676.676,0,0,1,.8.8l-.033.163c-.034.163,0,.17.084.06a4.629,4.629,0,0,1,2.805-1.838,3.7,3.7,0,0,1,4.707,3,8.692,8.692,0,0,1,.046,3.125c-.158,1.057-.7,3.875-.806,4.989a1.455,1.455,0,0,0,.023.45c.143.632.758.865,1.445.711a2.6,2.6,0,0,0,1.113-.588c1.454-1.27,2.485-3.9,3.021-5.6a.913.913,0,0,1,.661-.658,1.014,1.014,0,0,1,1.166.883,2.425,2.425,0,0,1-.073,1.189c-.212.743-.448,1.486-.729,2.226-1.061,2.748-2.571,4.948-5.4,5.627-.045.011-.087.024-.133.035C99.476,70.736,97.421,69.88,96.892,67.535Z"/><path class="a1fcb4b1-0ce8-404c-9b50-b648cd7c9859" d="M116.685,64.614a.339.339,0,0,0-.55-.014,6.991,6.991,0,0,1-4.347,3.372,3.972,3.972,0,0,1-4.727-2.218,7.062,7.062,0,0,1-.58-1.643,11.2,11.2,0,0,1-.135-3.727c.623-5.07,4.057-8.706,7.136-9.4a4.144,4.144,0,0,1,3.427.409,5.433,5.433,0,0,1,.726.559.04.04,0,0,0,.065-.022c.041-.2.108-.533.18-.882a1.594,1.594,0,0,1,1.21-1.233l2.2-.5a.668.668,0,0,1,.8.784c-1.409,6.915-1.812,8.963-2.15,11.463a1.269,1.269,0,0,0,.017.452,1.147,1.147,0,0,0,1.494.755,2.459,2.459,0,0,0,1.077-.576c1.454-1.27,2.494-3.909,3.03-5.618a.905.905,0,0,1,.659-.648,1.021,1.021,0,0,1,1.179.875,2.346,2.346,0,0,1-.093,1.2c-1.112,3.582-2.575,7.064-6.154,7.87A4.469,4.469,0,0,1,116.685,64.614Zm-.314-6.059a11.889,11.889,0,0,0,.479-3.634,1.4,1.4,0,0,0-1.887-1.028,4.985,4.985,0,0,0-2.381,1.489,9.838,9.838,0,0,0-2.519,5.42,7.953,7.953,0,0,0,.024,2.637c.2.885.67,1.494,1.607,1.282C113,64.427,115.62,61.893,116.371,58.555Z"/><path class="a1fcb4b1-0ce8-404c-9b50-b648cd7c9859" d="M131.54,63.535c-3.169.713-4.986-1.4-5.684-4.5a16.688,16.688,0,0,1-.206-5.45c.845-7.469,4.027-17.665,7.4-18.426a1.785,1.785,0,0,1,.874.021,2.108,2.108,0,0,1,1.414,1.733,7.184,7.184,0,0,1-.251,3.435,54.587,54.587,0,0,1-3.878,8.545c-.36.692-.751,1.445-1.107,2.157a.9.9,0,0,0-.093.267c-.146.844-.283,1.653-.388,2.471a13.522,13.522,0,0,0,.043,4.51c.384,1.7,1.253,2.349,2.2,2.138a2.492,2.492,0,0,0,1.055-.58c1.452-1.268,2.485-3.9,3.02-5.606a.911.911,0,0,1,.662-.656,1.014,1.014,0,0,1,1.166.883,2.433,2.433,0,0,1-.075,1.187c-.21.745-.447,1.488-.728,2.228-1.043,2.7-2.606,5.006-5.424,5.641ZM131.086,44.4a30.135,30.135,0,0,0,1.907-4.581c.238-.833.453-2.309.165-2.245-.153.035-.445.5-.947,1.715a31.084,31.084,0,0,0-1.23,5.087c-.012.061.078.081.105.022Z"/></g></g></svg>